<?xml version="1.0" standalone="no"?>
<!DOCTYPE svg PUBLIC "-//W3C//DTD SVG 20010904//EN"
 "http://www.w3.org/TR/2001/REC-SVG-20010904/DTD/svg10.dtd">
<svg version="1.0" xmlns="http://www.w3.org/2000/svg"
 width="500.000000pt" height="500.000000pt" viewBox="0 0 500.000000 500.000000"
 preserveAspectRatio="xMidYMid meet">
<metadata>
Created by potrace 1.14, written by Peter Selinger 2001-2017
</metadata>
<g transform="translate(0.000000,500.000000) scale(0.100000,-0.100000)"
fill="#000000" stroke="none">
<path d="M2479 4165 c-3 -2 -16 -6 -29 -8 -54 -10 -80 -20 -80 -28 0 -5 -3 -8
-7 -7 -20 6 -93 -49 -93 -69 0 -7 -4 -13 -10 -13 -8 0 -24 -55 -25 -85 0 -20
-37 -46 -68 -48 -18 -2 -37 -6 -44 -10 -6 -4 -14 -3 -18 3 -4 6 -11 8 -16 5
-5 -4 -52 -9 -103 -12 -90 -5 -96 -4 -119 19 -23 23 -86 48 -110 44 -60 -12
-109 -73 -105 -132 2 -30 12 -47 39 -74 57 -56 113 -50 179 18 16 17 37 31 47
31 60 0 273 20 283 26 9 6 33 -21 53 -60 23 -44 67 -87 112 -110 22 -11 42
-22 45 -25 13 -13 118 -21 126 -9 3 5 10 7 15 4 5 -4 15 -3 22 2 6 4 21 9 31
10 11 2 34 15 52 28 18 14 38 25 45 25 7 0 10 3 6 6 -3 4 -1 12 6 20 28 32 37
44 32 44 -2 0 2 8 11 18 18 21 47 21 184 2 47 -6 99 -13 115 -14 27 -3 84 -16
85 -20 1 0 3 -19 6 -41 4 -22 11 -43 18 -47 6 -4 7 -8 3 -8 -14 0 27 -64 63
-98 19 -18 45 -35 58 -38 12 -4 22 -11 22 -16 0 -6 7 -8 15 -5 8 4 17 1 21 -4
3 -6 15 -9 25 -6 10 3 21 1 24 -3 7 -11 66 -1 120 20 17 6 31 11 33 10 4 -1
31 22 77 66 51 50 63 81 63 169 0 65 -4 82 -31 145 -12 28 -63 80 -78 80 -5 0
-9 8 -9 17 0 9 -3 13 -6 10 -4 -3 -16 -1 -28 6 -11 6 -25 12 -31 13 -5 0 -23
4 -39 9 -43 12 -69 12 -83 2 -9 -6 -13 -5 -13 2 0 8 -6 7 -16 -3 -8 -9 -20
-14 -25 -11 -5 4 -9 1 -9 -4 0 -6 -3 -10 -7 -10 -18 3 -32 -2 -45 -14 -7 -7
-21 -18 -31 -23 -10 -6 -35 -35 -56 -65 -41 -59 -51 -63 -123 -44 -29 7 -45 8
-41 2 3 -6 2 -7 -4 -4 -10 7 -46 14 -107 21 -20 3 -41 8 -46 11 -6 3 -10 2
-10 -4 0 -7 -10 -7 -29 0 -27 10 -60 64 -46 77 2 3 -4 17 -15 32 -11 15 -17
29 -15 32 6 6 -94 108 -106 108 -4 0 -20 5 -36 11 -15 7 -35 13 -43 15 -42 9
-78 13 -81 9z"/>
<path d="M1083 3567 c-41 -15 -67 -44 -81 -88 -13 -38 -13 -109 0 -109 4 0 8
-7 8 -15 0 -8 5 -15 11 -15 12 0 -27 -71 -75 -136 -57 -76 -68 -93 -66 -99 1
-4 -8 -15 -19 -24 -12 -10 -21 -25 -21 -33 0 -26 -44 -58 -70 -52 -123 31
-231 -61 -233 -197 0 -37 7 -58 31 -96 18 -26 32 -45 32 -41 0 4 17 -2 38 -13
38 -22 119 -33 137 -19 6 5 14 8 18 8 24 0 65 27 85 56 15 22 30 33 40 31 9
-3 37 -9 61 -15 24 -6 46 -8 49 -5 3 2 11 0 17 -5 7 -6 24 -11 39 -12 14 -1
26 -6 26 -11 0 -4 4 -5 10 -2 15 9 50 -14 50 -34 0 -10 3 -21 7 -25 4 -3 8
-13 9 -21 6 -39 118 -126 143 -110 5 3 12 1 16 -5 11 -17 109 12 139 42 38 39
76 150 55 164 -4 2 -6 10 -4 17 9 23 -40 91 -85 119 -79 48 -159 42 -216 -17
-19 -20 -35 -39 -36 -43 -5 -13 -108 -3 -108 11 0 4 -4 6 -9 3 -5 -4 -21 -2
-36 4 -14 5 -40 12 -57 15 -49 9 -66 22 -73 57 -4 18 -14 46 -22 61 -12 24
-12 33 -1 58 7 16 16 29 20 29 5 0 8 7 8 15 0 8 5 15 10 15 6 0 10 4 10 10 0
5 9 21 21 34 12 13 20 27 19 31 -1 4 2 11 8 14 16 11 81 109 75 114 -2 3 7 13
22 23 21 13 31 15 50 6 16 -7 26 -8 30 -1 4 5 10 7 15 4 12 -7 59 23 83 52 19
24 40 23 135 -6 18 -5 35 -10 37 -10 3 -1 6 -1 8 -2 1 -1 13 -3 27 -4 59 -8
162 -42 170 -55 4 -8 10 -35 13 -60 9 -66 18 -100 28 -100 5 0 9 -5 9 -11 0
-6 9 -22 20 -36 11 -14 20 -22 20 -18 0 5 10 -1 23 -13 13 -12 45 -29 73 -37
56 -17 195 -18 206 -1 10 16 39 -4 58 -39 8 -16 27 -41 43 -57 29 -29 31 -72
5 -93 -18 -14 -53 -68 -50 -77 1 -5 -3 -8 -8 -8 -5 0 -9 -3 -8 -7 1 -5 -3 -18
-10 -30 -7 -13 -10 -23 -6 -23 3 0 2 -6 -4 -13 -6 -7 -13 -26 -16 -42 -2 -17
-5 -30 -6 -30 -1 0 -3 -28 -4 -63 0 -34 3 -62 7 -62 5 0 6 -4 3 -8 -6 -10 21
-92 37 -111 7 -8 11 -16 9 -18 -7 -9 74 -123 91 -129 10 -3 16 -8 13 -12 -7
-6 107 -63 137 -69 53 -10 55 -15 50 -130 -2 -60 -6 -119 -8 -133 -1 -14 -3
-31 -4 -38 0 -7 -5 -11 -10 -8 -13 9 -96 -49 -122 -85 -18 -26 -23 -46 -24
-98 0 -58 4 -71 30 -108 41 -57 84 -78 160 -78 50 0 69 5 103 28 54 36 70 61
84 137 10 58 13 63 47 78 20 9 39 15 44 14 4 -1 7 2 7 6 0 5 6 9 14 9 7 0 35
10 62 22 54 26 87 39 94 38 3 0 23 11 45 24 22 13 62 35 89 48 l50 24 60 -21
c98 -34 139 -33 181 6 26 23 53 66 61 95 1 4 2 8 4 10 7 8 6 77 -1 77 -5 0 -9
8 -9 18 0 20 -39 62 -61 66 -8 2 -26 8 -40 14 -14 6 -47 9 -72 7 -46 -4 -113
-36 -100 -48 3 -4 2 -7 -4 -7 -13 0 -24 -24 -30 -69 -3 -19 -11 -40 -18 -48
-7 -7 -15 -16 -17 -21 -6 -13 -302 -155 -325 -155 -7 0 -13 -4 -13 -8 0 -7
-53 -22 -66 -19 -4 1 -10 -4 -14 -10 -10 -17 -39 -5 -77 30 -31 29 -31 30 -27
107 5 71 9 109 14 123 1 3 1 15 0 28 -2 33 15 49 63 58 48 9 55 10 62 14 3 1
8 3 13 4 4 1 33 14 65 30 48 24 118 83 162 138 13 16 42 92 51 133 15 68 5
205 -17 248 -6 9 -7 22 -4 27 4 6 -1 13 -9 16 -9 3 -16 13 -16 21 0 15 -46 78
-85 118 -31 32 -112 85 -129 85 -9 0 -16 4 -16 10 0 5 -7 7 -15 4 -8 -4 -15
-2 -15 3 0 5 -16 8 -35 8 -19 -1 -35 1 -35 5 0 16 -214 -12 -237 -32 -7 -5
-16 -7 -22 -4 -5 3 -11 1 -13 -5 -2 -5 -11 -7 -20 -4 -9 4 -14 13 -11 21 3 8
0 14 -6 14 -6 0 -11 9 -11 20 0 11 -6 19 -12 17 -7 -1 -12 4 -11 11 2 6 -2 12
-8 12 -5 0 -7 6 -3 13 4 6 4 9 -1 5 -4 -4 -14 -3 -21 3 -10 9 -10 18 4 47 9
20 23 43 30 50 7 8 10 18 7 23 -4 5 -2 9 2 9 14 0 20 102 10 150 -10 50 -12
55 -22 62 -5 4 -10 12 -10 18 0 6 -7 15 -15 20 -8 5 -10 10 -5 10 15 1 -65 68
-97 81 -15 6 -28 15 -28 19 0 3 -6 7 -12 8 -89 7 -135 8 -143 3 -5 -3 -16 -6
-23 -7 -27 -4 -98 -47 -120 -73 -35 -40 -42 -50 -42 -56 0 -3 -5 -12 -12 -19
-12 -12 -31 -8 -178 42 -8 3 -19 6 -25 7 -5 1 -12 3 -15 4 -3 2 -14 4 -25 6
-109 19 -124 26 -132 66 -3 16 -22 47 -43 69 -31 33 -45 40 -86 44 -27 3 -63
0 -81 -7z"/>
<path d="M4006 3466 c-46 -26 -94 -79 -104 -115 -15 -47 -16 -121 -2 -121 5 0
9 -4 8 -9 -5 -16 34 -68 63 -85 41 -24 109 -47 109 -36 0 5 14 3 30 -4 22 -9
40 -31 64 -77 19 -36 52 -93 74 -128 38 -58 45 -91 19 -91 -6 0 -7 -3 -4 -6 3
-4 2 -14 -3 -24 -5 -9 -11 -33 -13 -51 -5 -44 -24 -79 -42 -79 -8 0 -15 -5
-15 -11 0 -5 -4 -8 -9 -5 -5 3 -14 -1 -21 -9 -7 -8 -16 -12 -21 -9 -5 3 -9 1
-9 -4 0 -4 -16 -16 -35 -25 -19 -9 -35 -21 -35 -27 0 -5 -3 -9 -7 -8 -12 3
-119 -56 -171 -94 -18 -13 -29 -15 -42 -8 -10 6 -35 10 -54 10 -20 0 -36 5
-36 11 0 5 -4 7 -10 4 -5 -3 -10 0 -10 9 0 8 -4 16 -8 18 -5 2 -28 42 -52 90
-24 48 -46 85 -50 83 -13 -8 -32 42 -25 64 3 12 19 33 33 46 15 14 23 25 19
25 -4 0 0 15 9 32 19 38 20 123 1 147 -10 12 -9 13 1 7 18 -11 -25 66 -49 86
-10 9 -19 21 -19 27 0 6 -7 11 -15 11 -8 0 -15 3 -15 8 0 9 -46 30 -80 36 -14
2 -27 5 -30 7 -14 6 -90 3 -90 -3 0 -5 -3 -7 -7 -6 -15 3 -83 -31 -83 -41 0
-6 -6 -11 -14 -11 -7 0 -19 -6 -25 -14 -9 -11 -18 -12 -41 -3 -17 6 -30 15
-30 19 0 4 -7 8 -15 8 -8 0 -15 5 -15 10 0 6 -7 10 -15 10 -8 0 -15 5 -15 11
0 5 -4 7 -10 4 -9 -6 -18 0 -55 33 -8 7 -16 11 -17 10 -2 -2 -23 6 -46 16 -42
19 -45 24 -45 89 0 9 -4 17 -8 17 -5 0 -9 8 -9 18 0 27 -80 89 -100 77 -5 -3
-11 -1 -14 3 -9 14 -67 12 -96 -3 -15 -8 -30 -11 -34 -8 -3 4 -6 -4 -6 -16 0
-12 -4 -20 -9 -17 -24 15 -47 -105 -29 -154 5 -14 9 -26 8 -28 0 -1 15 -19 34
-40 33 -35 39 -37 93 -36 38 1 71 8 96 21 31 17 43 19 67 10 16 -6 27 -15 24
-19 -3 -4 2 -8 11 -8 8 0 33 -11 55 -25 22 -14 44 -25 50 -25 5 0 10 -4 10
-10 0 -5 3 -9 8 -8 4 1 26 -8 50 -20 l42 -22 1 -63 c1 -34 3 -71 4 -83 2 -23
53 -114 64 -114 3 0 19 -11 34 -25 15 -14 27 -23 27 -20 0 3 11 -2 25 -11 24
-16 155 -27 155 -13 0 20 39 -7 55 -39 11 -20 22 -39 25 -42 3 -3 11 -15 18
-27 31 -57 38 -68 50 -81 7 -7 10 -17 7 -22 -3 -5 0 -10 7 -12 12 -4 15 -70 6
-113 -8 -32 12 -73 45 -97 18 -13 33 -22 35 -20 1 1 3 2 5 1 19 -6 75 -3 85 5
33 26 56 58 59 79 5 48 11 58 49 79 21 11 42 26 46 32 4 6 8 7 8 2 0 -5 11 1
25 14 14 13 25 20 25 15 0 -4 9 0 20 10 11 10 20 14 20 9 0 -5 4 -4 8 1 6 9
25 20 117 69 11 6 22 13 25 16 3 3 19 13 37 22 30 16 34 15 70 -3 39 -20 133
-25 133 -7 0 5 4 7 9 3 6 -3 23 8 40 24 16 16 32 27 35 25 3 -2 4 -1 2 2 -2 3
1 20 8 37 7 18 12 41 11 52 -4 71 -62 146 -117 150 -16 2 -32 5 -35 9 -3 3
-12 1 -20 -5 -9 -9 -13 -8 -13 0 0 6 -7 11 -15 11 -8 0 -15 7 -15 16 0 8 -4
12 -10 9 -5 -3 -10 3 -10 15 0 19 -73 167 -89 180 -4 3 -11 16 -17 30 -11 26
-4 49 25 83 17 21 21 101 7 145 -13 46 -50 89 -96 112 -39 20 -125 23 -154 6z"/>
<path d="M820 2318 c0 -5 -4 -7 -8 -4 -5 3 -23 -6 -40 -20 -91 -76 -99 -218
-17 -300 43 -43 127 -60 199 -38 34 10 96 55 96 70 0 8 3 14 8 15 4 0 15 2 24
4 9 2 59 -8 110 -21 51 -13 111 -26 132 -29 48 -7 66 -20 64 -49 -3 -40 32
-122 70 -162 37 -38 58 -53 115 -82 15 -7 31 -21 35 -30 4 -9 7 -80 7 -156
l-2 -139 -39 -31 c-102 -82 -129 -140 -113 -248 20 -129 165 -216 282 -169 16
6 33 11 38 11 18 0 88 72 98 101 5 16 7 29 4 29 -3 0 -1 6 5 13 19 23 8 134
-16 167 -12 16 -22 33 -22 37 0 5 -10 15 -21 23 -12 8 -27 20 -34 27 -7 7 -15
9 -19 6 -3 -4 -6 -1 -6 6 0 7 -4 9 -10 6 -5 -3 -10 -1 -10 5 0 6 -4 8 -10 5
-11 -7 -11 -8 -14 165 -1 69 -5 130 -9 137 -5 8 10 21 45 39 29 15 56 32 60
38 4 6 8 7 8 3 0 -18 62 64 82 109 24 53 29 157 10 204 -5 14 -10 29 -10 33
-1 4 -7 14 -14 21 -7 7 -22 24 -34 37 -56 63 -119 92 -206 95 -114 4 -182 -32
-226 -120 -13 -25 -27 -48 -31 -51 -5 -2 -30 2 -56 10 -27 8 -51 14 -54 13 -3
0 -8 0 -11 1 -5 2 -23 5 -109 15 -53 7 -87 27 -96 58 -30 106 -101 161 -200
157 -30 -1 -55 -6 -55 -11z"/>
</g>
</svg>
